<svg preserveAspectRatio="none" overflow="visible" style="display: block;" width="24" height="24" viewBox="0 0 24 24" fill="none" xmlns="http://www.w3.org/2000/svg">
<g id="SVG">
<g id="Vector">
<path d="M12 2L2.5 7.5L12 13L21.5 7.5L12 2V2" fill="#FF782D"/>
<path d="M12 2L2.5 7.5L12 13L21.5 7.5L12 2V2" stroke="#FF4B0B" stroke-width="1.2"/>
</g>
<g id="Vector_2">
<path d="M2.5 7.5V16.5L12 22V13L2.5 7.5V7.5" fill="#FF5A00"/>
<path d="M2.5 7.5V16.5L12 22V13L2.5 7.5V7.5" stroke="#FF4B0B" stroke-width="1.2"/>
</g>
<g id="Vector_3">
<path d="M12 13V22L21.5 16.5V7.5L12 13V13" fill="#FFA066"/>
<path d="M12 13V22L21.5 16.5V7.5L12 13V13" stroke="#FF4B0B" stroke-width="1.2"/>
</g>
<path id="Vector_4" d="M7.5 4.5L16.5 9.5" stroke="white" stroke-width="1.5" stroke-linecap="round"/>
</g>
</svg>
